<svg width="56" height="56" viewBox="0 0 56 56" fill="none" xmlns="http://www.w3.org/2000/svg">
<circle cx="28" cy="28" r="28" fill="#FFD242"/>
<path d="M24.7779 39.0001C25.4529 39.0001 26.0001 38.4529 26.0001 37.7779C26.0001 37.1029 25.4529 36.5557 24.7779 36.5557C24.1029 36.5557 23.5557 37.1029 23.5557 37.7779C23.5557 38.4529 24.1029 39.0001 24.7779 39.0001Z" fill="white" stroke="#3E5622" stroke-width="1.5" stroke-linecap="round" stroke-linejoin="round"/>
<path d="M33.3333 39.0001C34.0083 39.0001 34.5555 38.4529 34.5555 37.7779C34.5555 37.1029 34.0083 36.5557 33.3333 36.5557C32.6583 36.5557 32.1111 37.1029 32.1111 37.7779C32.1111 38.4529 32.6583 39.0001 33.3333 39.0001Z" fill="white" stroke="#3E5622" stroke-width="1.5" stroke-linecap="round" stroke-linejoin="round"/>
<path d="M15 17H18.7819L21.6183 33.0731H36.7459" stroke="#3E5622" stroke-width="2" stroke-linecap="round" stroke-linejoin="round"/>
<path d="M21.1112 29.1837L36.3584 29.2907C36.4677 29.2908 36.5737 29.2529 36.6583 29.1837C36.7429 29.1144 36.8008 29.0179 36.8223 28.9107L38.5241 20.4014C38.5378 20.3328 38.5362 20.262 38.5192 20.1941C38.5023 20.1262 38.4705 20.063 38.4261 20.0089C38.3817 19.9548 38.3259 19.9112 38.2626 19.8813C38.1993 19.8514 38.1302 19.8359 38.0602 19.8359L19.5674 19.8359" stroke="#3E5622" stroke-width="2" stroke-linecap="round" stroke-linejoin="round"/>
</svg>
