<svg width="56" height="56" viewBox="0 0 56 56" fill="none" xmlns="http://www.w3.org/2000/svg">
<circle cx="28" cy="28" r="28" fill="#FFD242"/>
<path d="M24.7779 39.0001C25.4529 39.0001 26.0001 38.4529 26.0001 37.7779C26.0001 37.1029 25.4529 36.5557 24.7779 36.5557C24.1029 36.5557 23.5557 37.1029 23.5557 37.7779C23.5557 38.4529 24.1029 39.0001 24.7779 39.0001Z" fill="#3E5622" stroke="#3E5622" stroke-width="2.5" stroke-linecap="round" stroke-linejoin="round"/>
<path d="M33.3333 39.0001C34.0083 39.0001 34.5555 38.4529 34.5555 37.7779C34.5555 37.1029 34.0083 36.5557 33.3333 36.5557C32.6583 36.5557 32.1111 37.1029 32.1111 37.7779C32.1111 38.4529 32.6583 39.0001 33.3333 39.0001Z" fill="#3E5622" stroke="#3E5622" stroke-width="2.5" stroke-linecap="round" stroke-linejoin="round"/>
<path d="M15 17H18.7819L21.6183 33.0731H36.7459" stroke="#3E5622" stroke-width="2.5" stroke-linecap="round" stroke-linejoin="round"/>
<path d="M20.5438 29.3477L35.791 29.4547C35.9003 29.4548 36.0063 29.417 36.0909 29.3477C36.1755 29.2784 36.2334 29.182 36.2549 29.0748L37.9567 20.5655C37.9705 20.4969 37.9688 20.4261 37.9518 20.3582C37.9349 20.2903 37.9031 20.227 37.8587 20.1729C37.8143 20.1188 37.7585 20.0752 37.6952 20.0453C37.6319 20.0154 37.5628 20 37.4929 20L19 20" stroke="#3E5622" stroke-width="2.5" stroke-linecap="round" stroke-linejoin="round"/>
</svg>
