<svg width="60" height="61" viewBox="0 0 60 61" fill="none" xmlns="http://www.w3.org/2000/svg">
<circle cx="30" cy="30.4091" r="30" fill="#EFF6F1"/>
<path fill-rule="evenodd" clip-rule="evenodd" d="M39.2828 30.6934C39.2828 25.5663 34.9657 21.4091 29.6414 21.4091C24.3171 21.4091 20 25.5663 20 30.6934C20 35.3273 23.5251 39.1682 28.1349 39.8654V33.378H25.6863V30.6934H28.1349V28.6479C28.1349 26.3215 29.5747 25.0353 31.7767 25.0353C32.8317 25.0353 33.9353 25.2169 33.9353 25.2169V27.5019H32.7189C31.5219 27.5019 31.1475 28.2173 31.1475 28.9526V30.6934H33.8212L33.3942 33.378H31.1479V39.8662C35.7577 39.1695 39.2828 35.3285 39.2828 30.6934Z" fill="#3E5622"/>
</svg>
