<svg width="60" height="61" viewBox="0 0 60 61" fill="none" xmlns="http://www.w3.org/2000/svg">
<circle cx="30" cy="30.4091" r="30" fill="#EFF6F1"/>
<path d="M33.6585 23.3654C34.7231 23.3684 35.7431 23.777 36.4958 24.5019C37.2486 25.2267 37.6729 26.209 37.6761 27.2341V34.9708C37.6729 35.9959 37.2486 36.9781 36.4958 37.703C35.7431 38.4279 34.7231 38.8365 33.6585 38.8395H25.6243C24.5598 38.8365 23.5397 38.4279 22.787 37.703C22.0342 36.9781 21.6099 35.9959 21.6068 34.9708V27.2341C21.6099 26.209 22.0342 25.2267 22.787 24.5019C23.5397 23.777 24.5598 23.3684 25.6243 23.3654H33.6585ZM33.6585 21.8181H25.6243C22.5309 21.8181 20 24.2552 20 27.2341V34.9708C20 37.9496 22.5309 40.3868 25.6243 40.3868H33.6585C36.752 40.3868 39.2828 37.9496 39.2828 34.9708V27.2341C39.2828 24.2552 36.752 21.8181 33.6585 21.8181Z" fill="#3E5622"/>
<path d="M34.8638 27.2349C34.6254 27.2349 34.3924 27.1668 34.1942 27.0393C33.996 26.9118 33.8416 26.7305 33.7504 26.5185C33.6591 26.3064 33.6353 26.0731 33.6818 25.8479C33.7283 25.6228 33.8431 25.416 34.0116 25.2537C34.1802 25.0914 34.3949 24.9809 34.6287 24.9361C34.8625 24.8913 35.1048 24.9143 35.325 25.0022C35.5452 25.09 35.7334 25.2387 35.8659 25.4296C35.9983 25.6204 36.069 25.8448 36.069 26.0744C36.0693 26.2269 36.0384 26.3779 35.9779 26.5189C35.9175 26.6598 35.8287 26.7879 35.7167 26.8957C35.6048 27.0035 35.4718 27.089 35.3254 27.1472C35.179 27.2054 35.0222 27.2352 34.8638 27.2349ZM29.6415 28.0083C30.2772 28.0083 30.8986 28.1898 31.4271 28.5299C31.9556 28.87 32.3676 29.3533 32.6108 29.9189C32.8541 30.4844 32.9177 31.1067 32.7937 31.707C32.6697 32.3074 32.3636 32.8588 31.9141 33.2917C31.4646 33.7245 30.892 34.0193 30.2685 34.1387C29.6451 34.2581 28.9989 34.1968 28.4116 33.9626C27.8243 33.7283 27.3224 33.3316 26.9692 32.8227C26.6161 32.3137 26.4276 31.7153 26.4276 31.1032C26.4285 30.2827 26.7674 29.496 27.3699 28.9158C27.9724 28.3355 28.7894 28.0092 29.6415 28.0083ZM29.6415 26.4611C28.6881 26.4611 27.756 26.7333 26.9633 27.2434C26.1705 27.7535 25.5526 28.4785 25.1878 29.3268C24.8229 30.175 24.7274 31.1084 24.9134 32.0089C25.0994 32.9094 25.5586 33.7365 26.2328 34.3857C26.9069 35.035 27.7659 35.4771 28.701 35.6562C29.6362 35.8353 30.6054 35.7434 31.4863 35.392C32.3672 35.0407 33.1201 34.4457 33.6498 33.6823C34.1795 32.9189 34.4622 32.0214 34.4622 31.1032C34.4622 29.8721 33.9543 28.6913 33.0503 27.8207C32.1462 26.9502 30.92 26.4611 29.6415 26.4611Z" fill="#3E5622"/>
</svg>
