<svg width="60" height="61" viewBox="0 0 60 61" fill="none" xmlns="http://www.w3.org/2000/svg">
<circle cx="30" cy="30.4091" r="30" fill="#EFF6F1"/>
<path d="M29.7966 20.4091C24.3866 20.4091 20 24.7937 20 30.2013C20 34.21 22.4142 37.6548 25.8649 39.1717C25.8386 38.4898 25.8605 37.6679 26.0354 36.9248C26.2235 36.1291 27.295 31.5871 27.295 31.5871C27.295 31.5871 26.9801 30.962 26.9801 30.0396C26.9801 28.5882 27.8198 27.5041 28.8695 27.5041C29.7617 27.5041 30.1903 28.1729 30.1903 28.9729C30.1903 29.8691 29.6173 31.2068 29.3243 32.4483C29.0794 33.4887 29.8447 34.3324 30.8725 34.3324C32.7269 34.3324 33.9777 31.9499 33.9777 29.1259C33.9777 26.9795 32.5301 25.3751 29.9016 25.3751C26.932 25.3751 25.0776 27.5915 25.0776 30.0658C25.0776 30.9183 25.3313 31.5215 25.7249 31.9849C25.9042 32.1991 25.9305 32.2866 25.8649 32.5314C25.8168 32.7106 25.7118 33.1434 25.6637 33.3182C25.5981 33.5674 25.3969 33.6548 25.1738 33.563C23.8049 33.0035 23.1664 31.5084 23.1664 29.821C23.1664 27.0407 25.515 23.7052 30.1684 23.7052C33.9077 23.7052 36.37 26.4112 36.37 29.3139C36.37 33.1565 34.2314 36.0242 31.0824 36.0242C30.0241 36.0242 29.0313 35.4516 28.6901 34.8046C28.6901 34.8046 28.1216 37.0603 27.9991 37.4974C27.7936 38.2537 27.3868 39.0056 27.0151 39.5958C27.9169 39.8617 28.8521 39.9971 29.7923 39.998C35.2023 39.998 39.5889 35.6133 39.5889 30.2057C39.5889 24.7981 35.2067 20.4091 29.7966 20.4091Z" fill="#3E5622"/>
</svg>
