<svg width="107" height="81" viewBox="0 0 107 81" fill="none" xmlns="http://www.w3.org/2000/svg">
<path d="M16.3297 45.2844C28.4849 58.2683 51.7677 70.8488 76.4616 68.5057C77.1349 68.444 77.5162 67.9769 77.4515 67.5549C76.6917 63.0566 72.4758 58.9536 68.6174 55.3775C64.0148 51.1 58.9752 47.3935 52.4043 44.3995C46.3488 41.6381 40.1248 40.032 32.7597 39.4688C29.073 39.1814 25.3444 39.1078 21.6316 39.0862C19.9754 39.0817 18.3017 39.083 16.6363 39.0958C15.4679 39.1042 14.0789 38.9271 13.004 39.2767C12.3696 39.483 12.1886 39.9564 12.4285 40.35C13.4346 42.1096 15.0677 43.6224 16.3297 45.2844C17.0321 46.1994 19.2431 45.4945 18.5324 44.568C17.2703 42.9059 15.6373 41.3932 14.6219 39.6509C14.427 40.0145 14.2321 40.378 14.0464 40.7243C14.7689 40.4893 16.8886 40.7146 17.8214 40.7114C19.382 40.704 20.951 40.7083 22.5023 40.7183C25.8489 40.7446 29.2112 40.8231 32.5325 41.0863C39.6278 41.6372 45.5384 43.2309 51.3612 45.9108C57.4417 48.707 62.0716 52.1466 66.3711 56.0938C70.1211 59.5194 74.3056 63.5183 75.0441 67.8662C75.3772 67.5435 75.701 67.238 76.0341 66.9153C64.142 68.039 52.5006 65.222 42.7617 61C33.0572 56.7954 24.648 51.0976 18.5241 44.5564C17.715 43.7047 15.504 44.4095 16.3297 45.2844Z" fill="#7BD389"/>
<path d="M15.5695 41.6339C27.0396 45.1006 37.8365 49.4433 48.1403 54.2178C52.5758 56.274 57.1383 58.1746 61.6637 60.1443C66.3864 62.207 71.1645 64.4374 74.4505 67.5531C75.3376 68.3928 77.193 67.3178 76.306 66.4781C73.1292 63.4839 68.5864 61.2485 64.0536 59.2382C59.229 57.0944 54.3044 55.0832 49.5429 52.876C39.0502 48.0201 28.08 43.6481 16.4117 40.1174C14.9714 39.6862 14.1634 41.2202 15.5695 41.6339Z" fill="#7BD389"/>
<path d="M68.6894 64.9955C56.2682 61.6997 43.4933 58.49 33.0972 52.783C31.8991 52.1229 30.5132 53.4785 31.7114 54.1386C42.2539 59.9273 55.2462 63.1958 67.8503 66.5328C69.3116 66.9205 70.133 65.389 68.6894 64.9955Z" fill="#7BD389"/>
<path d="M58.8053 52.771C52.9562 49.4687 46.1624 47.2474 39.244 45.0953C37.8327 44.6509 37.022 46.19 38.4249 46.6228C45.1787 48.7281 51.7464 50.9082 57.4411 54.1173C58.6085 54.7986 59.9821 53.4349 58.8053 52.771Z" fill="#7BD389"/>
<path d="M32.4507 50.4453C29.9702 49.0448 27.7392 47.4489 25.0627 46.1977C24.5328 45.9428 23.7383 46.0733 23.3703 46.4354C22.9847 46.8032 23.1505 47.3049 23.698 47.554C26.3745 48.8052 28.6055 50.4011 31.086 51.8017C31.5892 52.0795 32.4373 51.903 32.7785 51.5639C33.165 51.1673 32.9363 50.7289 32.4507 50.4453Z" fill="#7BD389"/>
<path d="M12.7234 25.4901C33.0938 33.5825 63.2855 37.7735 84.5101 28.0757C85.1181 27.8044 84.9756 27.2343 84.6466 26.901C80.7398 22.991 73.7901 20.5265 67.6593 18.456C60.8827 16.17 54.1687 14.4362 46.5638 13.6969C38.9322 12.9516 31.9377 13.2467 24.5755 14.9532C20.7907 15.8329 17.1323 16.9503 13.5167 18.1272C11.9077 18.6509 10.2893 19.1924 8.68892 19.728C7.55856 20.1107 6.14569 20.3797 5.36343 21.0601C5.05985 21.3203 5.05205 21.8366 5.44677 22.0751C7.6658 23.4226 10.3017 24.3261 12.7234 25.4901C14.018 26.1109 15.4313 24.7261 14.1367 24.1053C11.909 23.0249 9.39582 22.1989 7.33372 20.9765C7.35833 21.3208 7.39246 21.6473 7.41707 21.9916C7.91384 21.5657 10.2106 21.0676 11.0964 20.7793C12.6064 20.2731 14.1164 19.7669 15.6435 19.2845C18.9061 18.2372 22.2115 17.2493 25.6357 16.4577C32.6735 14.8274 39.4577 14.6741 46.723 15.4065C53.9701 16.1448 60.3893 17.8719 66.8377 20.0739C72.6051 22.0425 79.0678 24.3573 82.732 28.0233C82.7807 27.6258 82.8198 27.2461 82.8685 26.8486C72.6559 31.5087 59.9063 32.488 47.9585 31.6358C36.0555 30.7836 24.3347 28.1693 14.1452 24.1172C12.7679 23.5673 11.3546 24.9522 12.7234 25.4901Z" fill="#7BD389"/>
<path d="M9.14387 22.3805C22.5787 22.0017 35.953 22.656 49.21 23.8921C54.6697 24.406 60.1637 24.6883 65.6358 25.0953C71.1345 25.5083 76.8435 26.0585 81.7629 27.7765C83.161 28.2614 84.5837 26.8874 83.1771 26.3906C73.5153 23.0145 61.8424 23.422 51.2448 22.407C37.4006 21.0684 23.4028 20.3232 9.3588 20.7241C7.76441 20.7732 7.54948 22.4296 9.14387 22.3805Z" fill="#7BD389"/>
<path d="M74.9517 26.9624C61.3142 27.7799 47.3551 28.806 33.9186 26.8385C32.3622 26.6078 31.5002 28.1898 33.0748 28.4146C46.9673 30.4548 61.2763 29.4475 75.391 28.6072C77.0034 28.5092 76.5459 26.8704 74.9517 26.9624Z" fill="#7BD389"/>
<path d="M57.4232 19.6171C49.7113 18.4067 41.9317 18.4399 34.0225 18.6037C32.4172 18.6411 32.2015 20.3008 33.8068 20.2634C41.4739 20.1049 49.0848 20.0237 56.5832 21.1858C58.1435 21.4279 58.9835 19.8592 57.4232 19.6171Z" fill="#7BD389"/>
<path d="M30.9338 25.2874C27.5668 24.7648 24.3055 23.9896 20.8612 23.6668C20.2235 23.6119 19.554 24.004 19.505 24.4275C19.4722 24.904 19.9588 25.2409 20.6314 25.3136C21.4817 25.3869 22.1184 25.4713 22.8874 25.5855C23.7093 25.7117 24.5218 25.8555 25.3342 25.9993C26.9147 26.2867 28.4679 26.5976 30.0673 26.8498C30.6946 26.9518 31.4455 26.7953 31.6465 26.337C31.8721 25.9435 31.614 25.4013 30.9338 25.2874Z" fill="#7BD389"/>
</svg>
