<svg width="106" height="74" viewBox="0 0 106 74" fill="none" xmlns="http://www.w3.org/2000/svg">
<path d="M76.0322 13.1036C67.8201 10.0968 57.2068 8.9546 48.3359 10.0532C42.2293 10.8128 33.996 13.2658 34.6399 18.6177C35.213 23.3061 42.5667 26.1432 48.4191 26.7994C54.9939 27.5292 62.1902 27.0684 68.2808 25.3812C71.2825 24.5507 74.3113 23.3011 76.1397 21.3663C78.0651 19.3358 78.208 16.9593 77.167 14.5909C76.6032 13.3026 73.9431 14.0742 74.4922 15.3492C78.1985 23.8386 59.0854 25.3801 51.2981 24.9718C46.2889 24.7065 39.9468 23.4026 37.9104 19.6198C35.5828 15.3149 43.2694 12.8412 47.8552 12.2311C56.6523 11.0664 66.844 12.0132 75.0413 15.0068C76.7182 15.6234 77.7419 13.7236 76.0322 13.1036Z" fill="#7BD389"/>
<path d="M75.2236 14.4442C68.9004 16.2107 61.9179 16.5214 55.146 16.9948C53.2722 17.1211 53.7423 19.1929 55.6013 19.0533C62.6106 18.5571 69.8519 18.1904 76.401 16.3647C78.124 15.8935 76.95 13.9498 75.2236 14.4442Z" fill="#7BD389"/>
<path d="M79.4163 28.9176C75.6158 31.6546 71.937 34.4744 68.5013 37.4601C64.5711 40.8652 60.2484 44.6767 58.4406 48.9916C57.8039 50.5126 57.4694 52.2524 58.5704 53.7628C59.783 55.4256 62.3485 56.1575 64.7981 56.4193C68.6446 56.8356 72.8249 56.5575 76.1812 55.2789C80.0316 53.8159 82.9017 51.3951 84.91 48.6984C89.1991 42.9216 90.2985 34.258 82.3757 29.349C80.9361 28.4502 79.2459 30.0985 80.6707 30.9841C86.8631 34.8119 85.9698 41.699 83.2135 46.34C81.6925 48.8985 79.3442 51.2903 76.1123 52.8635C73.2032 54.2817 69.6743 54.6733 66.1155 54.4627C64.9571 54.3914 63.7397 54.2671 62.6758 53.8883C62.0082 53.6556 61.4446 53.2809 61.2066 52.9629C60.4337 51.9559 60.792 50.6297 61.3457 49.4527C63.1162 45.6274 66.8719 42.2749 70.3538 39.2C72.4179 37.3901 74.574 35.6365 76.7744 33.9228C77.6381 33.2591 78.5018 32.5954 79.3984 31.9351C79.7889 31.6577 80.1466 31.3771 80.5372 31.0997C80.8734 30.8521 81.1338 30.6672 81.264 30.5748C82.533 29.647 80.7034 27.98 79.4163 28.9176Z" fill="#7BD389"/>
<path d="M80.6686 30.6369C78.7667 34.9005 75.6829 38.7847 73.065 42.7987C72.2915 43.99 75.0325 44.7992 75.806 43.6079C78.4239 39.5938 81.5077 35.7097 83.4096 31.4461C83.974 30.1981 81.2182 29.3757 80.6686 30.6369Z" fill="#7BD389"/>
<path d="M48.7177 33.9824C41.0347 33.8811 32.5448 33.9213 25.7959 36.6247C21.6752 38.2772 17.3231 40.9545 15.7786 44.2364C15.124 45.6421 15.1008 47.1946 16.3516 48.5003C17.7916 50.002 20.3403 50.6628 22.6949 51.0446C28.8452 52.026 34.966 49.9652 39.4501 47.3014C44.3553 44.3861 48.5753 40.3054 49.9197 35.7425C50.2903 34.4493 47.3697 34.1628 47.0172 35.4462C46.0517 38.7755 43.0512 41.8263 39.7966 44.2034C36.2628 46.7757 31.5899 49.0079 26.2897 49.2088C22.9575 49.3398 17.2063 48.3756 18.4453 45.2391C19.5102 42.4971 23.2132 40.2601 26.4543 38.7888C32.7004 35.9751 41.1061 35.9381 48.4048 36.0355C50.2753 36.0616 50.5882 34.0085 48.7177 33.9824Z" fill="#7BD389"/>
<path d="M46.3573 34.8119C42.076 37.1557 37.4584 39.1443 33.177 41.4881C31.7133 42.2894 33.5595 43.9755 35.0415 43.1642C39.3228 40.8204 43.9404 38.8318 48.2218 36.4879C49.7038 35.6766 47.8393 34.0005 46.3573 34.8119Z" fill="#7BD389"/>
</svg>
