<svg width="22" height="21" viewBox="0 0 22 21" fill="none" xmlns="http://www.w3.org/2000/svg">
<path d="M20.9947 18.8921L16.1962 14.1315C17.3514 12.6057 17.9751 10.7485 17.973 8.84016C17.973 3.96573 13.9756 0 9.0623 0C4.14898 0 0.151611 3.96573 0.151611 8.84016C0.151611 13.7146 4.14898 17.6803 9.0623 17.6803C10.9859 17.6824 12.8579 17.0637 14.3959 15.9175L19.1944 20.6781C19.4373 20.8936 19.7542 21.0085 20.0798 20.9995C20.4055 20.9905 20.7153 20.8581 20.9457 20.6295C21.1761 20.401 21.3095 20.0936 21.3187 19.7705C21.3278 19.4474 21.2119 19.1331 20.9947 18.8921ZM2.69752 8.84016C2.69752 7.59129 3.07081 6.37047 3.77018 5.33207C4.46955 4.29367 5.4636 3.48434 6.62661 3.00642C7.78962 2.52849 9.06936 2.40345 10.304 2.64709C11.5387 2.89073 12.6728 3.49212 13.5629 4.3752C14.453 5.25829 15.0592 6.38341 15.3048 7.60828C15.5504 8.83315 15.4243 10.1028 14.9426 11.2566C14.4609 12.4104 13.6451 13.3966 12.5984 14.0904C11.5517 14.7842 10.3211 15.1546 9.0623 15.1546C7.37488 15.1526 5.75715 14.4866 4.56396 13.3029C3.37077 12.1192 2.69955 10.5142 2.69752 8.84016Z" fill="#3E5622"/>
</svg>
