<svg width="57" height="56" viewBox="0 0 57 56" fill="none" xmlns="http://www.w3.org/2000/svg">
<ellipse cx="28.2234" cy="28" rx="28.2234" ry="28" fill="#7BD389"/>
<path d="M39.9947 35.8921L35.1962 31.1315C36.3514 29.6057 36.9751 27.7485 36.973 25.8402C36.973 20.9657 32.9756 17 28.0623 17C23.149 17 19.1516 20.9657 19.1516 25.8402C19.1516 30.7146 23.149 34.6803 28.0623 34.6803C29.9859 34.6824 31.8579 34.0637 33.3959 32.9175L38.1944 37.6781C38.4373 37.8936 38.7542 38.0085 39.0798 37.9995C39.4055 37.9905 39.7153 37.8581 39.9457 37.6295C40.1761 37.401 40.3095 37.0936 40.3187 36.7705C40.3278 36.4474 40.2119 36.1331 39.9947 35.8921ZM21.6975 25.8402C21.6975 24.5913 22.0708 23.3705 22.7702 22.3321C23.4696 21.2937 24.4636 20.4843 25.6266 20.0064C26.7896 19.5285 28.0694 19.4034 29.304 19.6471C30.5387 19.8907 31.6728 20.4921 32.5629 21.3752C33.453 22.2583 34.0592 23.3834 34.3048 24.6083C34.5504 25.8332 34.4243 27.1028 33.9426 28.2566C33.4609 29.4104 32.6451 30.3966 31.5984 31.0904C30.5517 31.7842 29.3211 32.1546 28.0623 32.1546C26.3749 32.1526 24.7571 31.4866 23.564 30.3029C22.3708 29.1192 21.6995 27.5142 21.6975 25.8402Z" fill="#3E5622"/>
</svg>
