<svg width="60" height="61" viewBox="0 0 60 61" fill="none" xmlns="http://www.w3.org/2000/svg">
<circle cx="30" cy="30.4091" r="30" fill="#EFF6F1"/>
<path d="M40.6602 24.3675C39.8852 24.7042 39.0652 24.9261 38.2261 25.026C39.1079 24.5097 39.7711 23.6894 40.0912 22.719C39.2575 23.2065 38.3469 23.5485 37.3984 23.7305C36.9991 23.3119 36.5187 22.9789 35.9866 22.7517C35.4546 22.5246 34.8818 22.408 34.3033 22.4091C31.9609 22.4091 30.0654 24.2771 30.0654 26.5798C30.0637 26.9001 30.1004 27.2195 30.1747 27.5311C28.4951 27.4523 26.8504 27.0239 25.3458 26.2731C23.8413 25.5223 22.51 24.4657 21.4372 23.1709C21.0608 23.8054 20.8618 24.5293 20.8608 25.2671C20.8608 26.7133 21.6154 27.9916 22.7547 28.7405C22.0797 28.7245 21.4185 28.5459 20.8273 28.2197V28.2714C20.8273 30.2944 22.2907 31.9773 24.2276 32.3604C23.8634 32.4575 23.488 32.5067 23.1111 32.5067C22.8436 32.5072 22.5767 32.4812 22.3144 32.4292C22.8528 34.0864 24.42 35.2915 26.2764 35.326C24.7679 36.4885 22.9159 37.1168 21.0115 37.1122C20.6734 37.1117 20.3357 37.0916 20 37.052C21.9374 38.2891 24.1895 38.9435 26.4882 38.9372C34.2943 38.9372 38.5589 32.5799 38.5589 27.0662C38.5589 26.8854 38.5541 26.7047 38.5455 26.5282C39.3733 25.9394 40.0893 25.2077 40.6602 24.3675Z" fill="#3E5622"/>
</svg>
