<svg width="81" height="56" viewBox="0 0 81 56" fill="none" xmlns="http://www.w3.org/2000/svg">
<mask id="mask0_127_4" style="mask-type:luminance" maskUnits="userSpaceOnUse" x="0" y="0" width="53" height="38">
<path d="M0 0.473633H52.0991V37.8902H0V0.473633Z" fill="white"/>
</mask>
<g mask="url(#mask0_127_4)">
<mask id="mask1_127_4" style="mask-type:luminance" maskUnits="userSpaceOnUse" x="-3" y="-17" width="91" height="78">
<path d="M-2.26086 1.97784L73.6898 -16.4233L87.8246 41.9217L11.874 60.321L-2.26086 1.97784Z" fill="white"/>
</mask>
<g mask="url(#mask1_127_4)">
<mask id="mask2_127_4" style="mask-type:luminance" maskUnits="userSpaceOnUse" x="-3" y="-17" width="91" height="78">
<path d="M73.7379 -16.4346L-2.21277 1.96476L11.9221 60.3098L87.8727 41.9086L73.7379 -16.4346Z" fill="white"/>
</mask>
<g mask="url(#mask2_127_4)">
<path d="M16.8073 26.8908L16.7277 26.4009C12.3439 26.5792 9.64452 25.3602 8.00902 24.0191C3.15835 17.6488 0.0743795 10.323 0.547061 3.74083C0.591517 3.72737 0.645007 3.71133 0.707265 3.69293C0.919052 3.63032 1.23229 3.54033 1.63651 3.43129C2.445 3.21319 3.61727 2.91897 5.06972 2.61525C7.97524 2.0077 11.9988 1.36288 16.4725 1.2127C25.4305 0.911997 36.1351 2.5957 43.317 10.4588L43.5016 10.2902L43.317 10.4588C47.1588 14.6645 49.2785 20.8953 50.4355 26.1036C51.0129 28.7031 51.3485 31.0382 51.5396 32.7233C51.6352 33.5657 51.6946 34.2452 51.7301 34.7137C51.7332 34.7547 51.7362 34.794 51.7389 34.8317C50.7445 33.986 49.3328 33.0377 47.708 32.0479C45.8089 30.8911 43.6024 29.6683 41.3979 28.4754C40.4732 27.9751 39.55 27.4805 38.65 26.9985C35.2455 25.1747 32.1748 23.5299 30.6273 22.4286L30.3019 22.8053C31.1452 23.6844 32.5234 24.771 34.1483 25.969C35.1633 26.7173 36.2829 27.5151 37.4376 28.3378C38.1336 28.8337 38.8424 29.3387 39.5486 29.8475C41.4301 31.2027 43.299 32.588 44.8878 33.9152C46.0022 34.8462 46.9707 35.742 47.7075 36.5731C46.4606 35.9741 45.0992 35.7158 43.6454 35.6524C41.7302 35.569 39.6349 35.8237 37.4129 36.0943L37.4038 36.0954C33.1473 36.6139 28.3831 37.1941 23.2717 35.6866C24.6022 35.1895 25.7462 34.5472 26.5934 33.9992C27.0928 33.6763 27.4904 33.3852 27.7638 33.1743C27.9005 33.0688 28.0063 32.9833 28.0783 32.9238C28.1143 32.8941 28.1418 32.8708 28.1606 32.8548L28.1821 32.8363L28.1879 32.8314L28.1895 32.83L28.19 32.8295L28.1901 32.8294C28.1902 32.8293 28.1902 32.8293 28.0254 32.6413L28.1902 32.8293L27.9101 32.4195C24.071 34.4146 21.1381 34.4837 19.0935 33.9858C16.4012 32.5699 13.627 30.4578 10.7941 27.357C12.2996 27.5152 13.7047 27.425 14.7747 27.2843C15.3897 27.2034 15.8957 27.1057 16.2489 27.0279C16.4255 26.989 16.564 26.955 16.6589 26.9307C16.7063 26.9185 16.7429 26.9087 16.7679 26.9019L16.7965 26.8939L16.8042 26.8917L16.8063 26.8911L16.807 26.8909L16.8072 26.8909C16.8073 26.8909 16.8073 26.8908 16.7379 26.6507L16.8073 26.8908Z" fill="#7BD389" stroke="#3E5622" stroke-width="0.5"/>
</g>
</g>
</g>
<mask id="mask3_127_4" style="mask-type:luminance" maskUnits="userSpaceOnUse" x="51" y="0" width="27" height="41">
<path d="M51.8754 0.25H77.425V40.0084H51.8754V0.25Z" fill="white" stroke="white" stroke-width="0.5"/>
</mask>
<g mask="url(#mask3_127_4)">
<mask id="mask4_127_4" style="mask-type:luminance" maskUnits="userSpaceOnUse" x="-3" y="-17" width="91" height="78">
<path d="M12.0581 60.0192L-1.95903 2.16195L73.5057 -16.1215L87.5228 41.7376L12.0581 60.0192Z" fill="white" stroke="white" stroke-width="0.5"/>
</mask>
<g mask="url(#mask4_127_4)">
<mask id="mask5_127_4" style="mask-type:luminance" maskUnits="userSpaceOnUse" x="-3" y="-17" width="91" height="78">
<path d="M-1.91099 2.14887L73.5537 -16.1327L87.5708 41.7245L12.1061 60.0079L-1.91099 2.14887Z" fill="white" stroke="white" stroke-width="0.5"/>
</mask>
<g mask="url(#mask5_127_4)">
<path d="M58.4375 13.8387L58.2043 13.9287L58.6855 13.8068C58.2788 10.6454 58.9893 8.61976 59.8502 7.35843C64.1583 3.43836 69.262 0.743774 74.0476 0.653469C74.0561 0.674774 74.0654 0.698211 74.0754 0.723743C74.1343 0.873538 74.2197 1.09545 74.3247 1.38238C74.5347 1.9563 74.8233 2.79015 75.1367 3.82732C75.7638 5.90228 76.489 8.78786 76.8831 12.0319C77.6725 18.5307 77.1268 26.41 71.8777 32.1207L71.8776 32.1207C69.0711 35.1748 64.6817 37.1124 60.9651 38.2866C59.1113 38.8722 57.4343 39.2651 56.2209 39.5115C55.6559 39.6262 55.1917 39.7091 54.8574 39.7649C55.3878 38.9928 55.9583 37.9515 56.5418 36.7726C57.2641 35.3137 58.0146 33.627 58.743 31.9447C59.047 31.2427 59.3467 30.5426 59.6388 29.8603C60.7526 27.2586 61.7553 24.9164 62.4587 23.7211L62.0551 23.4297C61.4643 24.1046 60.7579 25.1824 59.989 26.442C59.5081 27.23 58.9974 28.0979 58.471 28.9926C58.1545 29.5305 57.8324 30.078 57.5076 30.6236C56.6405 32.0803 55.7516 33.5283 54.8875 34.7683C54.3597 35.5259 53.8456 36.1991 53.3557 36.7471C53.6301 35.88 53.7069 34.9654 53.665 34.0096C53.6033 32.6025 53.2826 31.0867 52.944 29.4867L52.9435 29.4846C52.305 26.4679 51.5945 23.1108 52.3003 19.3838C52.7314 20.2482 53.2348 20.9808 53.6608 21.528C53.9293 21.8729 54.168 22.1455 54.3402 22.3324C54.4264 22.4259 54.4959 22.4981 54.5444 22.5472C54.5686 22.5718 54.5875 22.5907 54.6006 22.6035L54.6158 22.6184L54.62 22.6224L54.6212 22.6236L54.6216 22.624L54.6217 22.6241C54.6218 22.6241 54.6218 22.6242 54.7947 22.4436L54.6218 22.6242L55.0056 22.3094C53.3178 19.6566 53.0829 17.5446 53.3109 16.0402C54.1512 14.0392 55.472 11.9357 57.476 9.73014C57.4753 10.7752 57.6238 11.7314 57.7859 12.464C57.8844 12.9088 57.9882 13.273 58.0677 13.5267C58.1075 13.6536 58.1412 13.7531 58.1652 13.8213C58.1772 13.8554 58.1868 13.8817 58.1934 13.8997L58.2012 13.9206L58.2033 13.9263L58.204 13.9279L58.2042 13.9284L58.2042 13.9286C58.2043 13.9286 58.2043 13.9287 58.4375 13.8387Z" fill="#7BD389" stroke="#3E5622" stroke-width="0.5"/>
</g>
</g>
</g>
<mask id="mask6_127_4" style="mask-type:luminance" maskUnits="userSpaceOnUse" x="10" y="35" width="71" height="21">
<path d="M10.8934 35.522H80.0431V55.4143H10.8934V35.522Z" fill="white"/>
</mask>
<g mask="url(#mask6_127_4)">
<mask id="mask7_127_4" style="mask-type:luminance" maskUnits="userSpaceOnUse" x="-3" y="-17" width="91" height="78">
<path d="M-2.26086 1.97784L73.6898 -16.4233L87.8246 41.9217L11.874 60.321L-2.26086 1.97784Z" fill="white"/>
</mask>
<g mask="url(#mask7_127_4)">
<mask id="mask8_127_4" style="mask-type:luminance" maskUnits="userSpaceOnUse" x="-3" y="-17" width="91" height="78">
<path d="M73.7379 -16.4346L-2.21277 1.96476L11.9221 60.3098L87.8727 41.9086L73.7379 -16.4346Z" fill="white"/>
</mask>
<g mask="url(#mask8_127_4)">
<path d="M79.8636 35.6865C79.8636 35.6865 66.2098 45.7271 41.2019 40.5005C16.1958 35.2739 10.9859 55.2403 10.9859 55.2403C10.9859 55.2403 17.1653 40.9112 38.9503 44.7336C60.7353 48.5559 72.3152 42.1194 79.8636 35.6865Z" fill="#3E5622"/>
</g>
</g>
</g>
</svg>
