<svg width="133" height="117" viewBox="0 0 133 117" fill="none" xmlns="http://www.w3.org/2000/svg">
<mask id="mask0_40_5862" style="mask-type:luminance" maskUnits="userSpaceOnUse" x="0" y="0" width="53" height="38">
<path d="M0 0.473633H52.0991V37.8902H0V0.473633Z" fill="white"/>
</mask>
<g mask="url(#mask0_40_5862)">
<mask id="mask1_40_5862" style="mask-type:luminance" maskUnits="userSpaceOnUse" x="-3" y="-17" width="91" height="78">
<path d="M-2.26086 1.97784L73.6898 -16.4233L87.8246 41.9217L11.874 60.321L-2.26086 1.97784Z" fill="white"/>
</mask>
<g mask="url(#mask1_40_5862)">
<mask id="mask2_40_5862" style="mask-type:luminance" maskUnits="userSpaceOnUse" x="-3" y="-17" width="91" height="78">
<path d="M73.7379 -16.4346L-2.21277 1.96476L11.9221 60.3098L87.8727 41.9086L73.7379 -16.4346Z" fill="white"/>
</mask>
<g mask="url(#mask2_40_5862)">
<path d="M16.8073 26.8908L16.7277 26.4009C12.3439 26.5792 9.64452 25.3602 8.00902 24.0191C3.15835 17.6488 0.0743795 10.323 0.547061 3.74083C0.591517 3.72737 0.645007 3.71133 0.707265 3.69293C0.919052 3.63032 1.23229 3.54033 1.63651 3.43129C2.445 3.21319 3.61727 2.91897 5.06972 2.61525C7.97524 2.0077 11.9988 1.36288 16.4725 1.2127C25.4305 0.911997 36.1351 2.5957 43.317 10.4588L43.5016 10.2902L43.317 10.4588C47.1588 14.6645 49.2785 20.8953 50.4355 26.1036C51.0129 28.7031 51.3485 31.0382 51.5396 32.7233C51.6352 33.5657 51.6946 34.2452 51.7301 34.7137C51.7332 34.7547 51.7362 34.794 51.7389 34.8317C50.7445 33.986 49.3328 33.0377 47.708 32.0479C45.8089 30.8911 43.6024 29.6683 41.3979 28.4754C40.4732 27.9751 39.55 27.4805 38.65 26.9985C35.2455 25.1747 32.1748 23.5299 30.6273 22.4286L30.3019 22.8053C31.1452 23.6844 32.5234 24.771 34.1483 25.969C35.1633 26.7173 36.2829 27.5151 37.4376 28.3378C38.1336 28.8337 38.8424 29.3387 39.5486 29.8475C41.4301 31.2027 43.299 32.588 44.8878 33.9152C46.0022 34.8462 46.9707 35.742 47.7075 36.5731C46.4606 35.9741 45.0992 35.7158 43.6454 35.6524C41.7302 35.569 39.6349 35.8237 37.4129 36.0943L37.4038 36.0954C33.1473 36.6139 28.3831 37.1941 23.2717 35.6866C24.6022 35.1895 25.7462 34.5472 26.5934 33.9992C27.0928 33.6763 27.4904 33.3852 27.7638 33.1743C27.9005 33.0688 28.0063 32.9833 28.0783 32.9238C28.1143 32.8941 28.1418 32.8708 28.1606 32.8548L28.1821 32.8363L28.1879 32.8314L28.1895 32.83L28.19 32.8295L28.1901 32.8294C28.1902 32.8293 28.1902 32.8293 28.0254 32.6413L28.1902 32.8293L27.9101 32.4195C24.071 34.4146 21.1381 34.4837 19.0935 33.9858C16.4012 32.5699 13.627 30.4578 10.7941 27.357C12.2996 27.5152 13.7047 27.425 14.7747 27.2843C15.3897 27.2034 15.8957 27.1057 16.2489 27.0279C16.4255 26.989 16.564 26.955 16.6589 26.9307C16.7063 26.9185 16.7429 26.9087 16.7679 26.9019L16.7965 26.8939L16.8042 26.8917L16.8063 26.8911L16.807 26.8909L16.8072 26.8909C16.8073 26.8909 16.8073 26.8908 16.7379 26.6507L16.8073 26.8908Z" fill="#7BD389" stroke="#3E5622" stroke-width="0.5"/>
</g>
</g>
</g>
<mask id="mask3_40_5862" style="mask-type:luminance" maskUnits="userSpaceOnUse" x="51" y="0" width="27" height="41">
<path d="M51.8754 0.25H77.425V40.0084H51.8754V0.25Z" fill="white" stroke="white" stroke-width="0.5"/>
</mask>
<g mask="url(#mask3_40_5862)">
<mask id="mask4_40_5862" style="mask-type:luminance" maskUnits="userSpaceOnUse" x="-3" y="-17" width="91" height="78">
<path d="M12.0581 60.0192L-1.95903 2.16195L73.5057 -16.1215L87.5228 41.7376L12.0581 60.0192Z" fill="white" stroke="white" stroke-width="0.5"/>
</mask>
<g mask="url(#mask4_40_5862)">
<mask id="mask5_40_5862" style="mask-type:luminance" maskUnits="userSpaceOnUse" x="-3" y="-17" width="91" height="78">
<path d="M-1.91099 2.14887L73.5537 -16.1327L87.5708 41.7245L12.1061 60.0079L-1.91099 2.14887Z" fill="white" stroke="white" stroke-width="0.5"/>
</mask>
<g mask="url(#mask5_40_5862)">
<path d="M58.4375 13.8387L58.2043 13.9287L58.6855 13.8068C58.2788 10.6454 58.9893 8.61976 59.8502 7.35843C64.1583 3.43836 69.262 0.743774 74.0476 0.653469C74.0561 0.674774 74.0654 0.698211 74.0754 0.723743C74.1343 0.873538 74.2197 1.09545 74.3247 1.38238C74.5347 1.9563 74.8233 2.79015 75.1367 3.82732C75.7638 5.90228 76.489 8.78786 76.8831 12.0319C77.6725 18.5307 77.1268 26.41 71.8777 32.1207L71.8776 32.1207C69.0711 35.1748 64.6817 37.1124 60.9651 38.2866C59.1113 38.8722 57.4343 39.2651 56.2209 39.5115C55.6559 39.6262 55.1917 39.7091 54.8574 39.7649C55.3878 38.9928 55.9583 37.9515 56.5418 36.7726C57.2641 35.3137 58.0146 33.627 58.743 31.9447C59.047 31.2427 59.3467 30.5426 59.6388 29.8603C60.7526 27.2586 61.7553 24.9164 62.4587 23.7211L62.0551 23.4297C61.4643 24.1046 60.7579 25.1824 59.989 26.442C59.5081 27.23 58.9974 28.0979 58.471 28.9926C58.1545 29.5305 57.8324 30.078 57.5076 30.6236C56.6405 32.0803 55.7516 33.5283 54.8875 34.7683C54.3597 35.5259 53.8456 36.1991 53.3557 36.7471C53.6301 35.88 53.7069 34.9654 53.665 34.0096C53.6033 32.6025 53.2826 31.0867 52.944 29.4867L52.9435 29.4846C52.305 26.4679 51.5945 23.1108 52.3003 19.3838C52.7314 20.2482 53.2348 20.9808 53.6608 21.528C53.9293 21.8729 54.168 22.1455 54.3402 22.3324C54.4264 22.4259 54.4959 22.4981 54.5444 22.5472C54.5686 22.5718 54.5875 22.5907 54.6006 22.6035L54.6158 22.6184L54.62 22.6224L54.6212 22.6236L54.6216 22.624L54.6217 22.6241C54.6218 22.6241 54.6218 22.6242 54.7947 22.4436L54.6218 22.6242L55.0056 22.3094C53.3178 19.6566 53.0829 17.5446 53.3109 16.0402C54.1512 14.0392 55.472 11.9357 57.476 9.73014C57.4753 10.7752 57.6238 11.7314 57.7859 12.464C57.8844 12.9088 57.9882 13.273 58.0677 13.5267C58.1075 13.6536 58.1412 13.7531 58.1652 13.8213C58.1772 13.8554 58.1868 13.8817 58.1934 13.8997L58.2012 13.9206L58.2033 13.9263L58.204 13.9279L58.2042 13.9284L58.2042 13.9286C58.2043 13.9286 58.2043 13.9287 58.4375 13.8387Z" fill="#7BD389" stroke="#3E5622" stroke-width="0.5"/>
</g>
</g>
</g>
<mask id="mask6_40_5862" style="mask-type:luminance" maskUnits="userSpaceOnUse" x="10" y="35" width="71" height="21">
<path d="M10.8934 35.522H80.0431V55.4143H10.8934V35.522Z" fill="white"/>
</mask>
<g mask="url(#mask6_40_5862)">
<mask id="mask7_40_5862" style="mask-type:luminance" maskUnits="userSpaceOnUse" x="-3" y="-17" width="91" height="78">
<path d="M-2.26086 1.97784L73.6898 -16.4233L87.8246 41.9217L11.874 60.321L-2.26086 1.97784Z" fill="white"/>
</mask>
<g mask="url(#mask7_40_5862)">
<mask id="mask8_40_5862" style="mask-type:luminance" maskUnits="userSpaceOnUse" x="-3" y="-17" width="91" height="78">
<path d="M73.7379 -16.4346L-2.21277 1.96476L11.9221 60.3098L87.8727 41.9086L73.7379 -16.4346Z" fill="white"/>
</mask>
<g mask="url(#mask8_40_5862)">
<path d="M79.8636 35.6865C79.8636 35.6865 66.2098 45.7271 41.2019 40.5005C16.1958 35.2739 10.9859 55.2403 10.9859 55.2403C10.9859 55.2403 17.1653 40.9112 38.9503 44.7336C60.7353 48.5559 72.3152 42.1194 79.8636 35.6865Z" fill="#3E5622"/>
</g>
</g>
</g>
<path d="M36.8939 51.9331C39.8041 51.9331 42.2703 52.2735 44.2944 52.9544C46.3221 53.6352 48.1648 54.6028 49.8225 55.8553C50.2665 56.1865 50.6532 56.6472 50.9844 57.2392C51.3137 57.8276 51.4802 58.4899 51.4802 59.2299C51.4802 60.4103 51.075 61.3964 50.2665 62.1901C49.4562 62.9801 48.4627 63.3742 47.2841 63.3742C46.6921 63.3742 46.1926 63.2835 45.7892 63.1004C45.3841 62.9135 45.0344 62.7285 44.7384 62.5453C43.558 61.6573 42.3332 60.9746 41.0604 60.4954C39.7912 60.0181 38.3833 59.7776 36.8347 59.7776C35.2159 59.7776 33.7136 60.0921 32.3279 60.7174C30.9458 61.3446 29.7562 62.2105 28.7608 63.315C27.7692 64.4213 26.9958 65.7016 26.4445 67.1558C25.8913 68.6118 25.6157 70.1678 25.6157 71.8255V71.9365C25.6157 73.5942 25.8913 75.1612 26.4445 76.6358C26.9958 78.1121 27.7618 79.4017 28.7386 80.5062C29.7155 81.6126 30.894 82.4877 32.2761 83.1333C33.6562 83.7753 35.177 84.0954 36.8347 84.0954C38.6404 84.0954 40.1964 83.8401 41.5044 83.3258C42.8106 82.8077 44.0538 82.051 45.2342 81.0538C45.9743 80.4285 46.8216 80.114 47.78 80.114C48.8456 80.114 49.7744 80.5025 50.5699 81.2758C51.3636 82.051 51.7614 82.9742 51.7614 84.0436C51.7614 84.7059 51.6208 85.2758 51.3396 85.7531C51.0621 86.2323 50.7216 86.6744 50.3183 87.0778C48.6255 88.667 46.6921 89.8751 44.5164 90.704C42.3443 91.5328 39.6931 91.9473 36.5609 91.9473C33.7228 91.9473 31.0883 91.4311 28.6572 90.4006C26.2243 89.3645 24.1226 87.9547 22.3521 86.1675C20.5852 84.3822 19.2032 82.273 18.2078 79.8401C17.2162 77.4091 16.7203 74.8116 16.7203 72.0475V71.9365C16.7203 69.1743 17.2162 66.586 18.2078 64.1734C19.2032 61.7609 20.5852 59.6425 22.3521 57.8165C24.1226 55.9922 26.241 54.5566 28.709 53.5094C31.1808 52.4585 33.9078 51.9331 36.8939 51.9331Z" fill="#FFD242"/>
<path d="M52.9745 54.8044C52.9745 53.6259 53.3778 52.6324 54.1882 51.8221C55.0022 51.0136 55.9976 50.6084 57.1779 50.6084C58.3565 50.6084 59.35 51.0136 60.1603 51.8221C60.9688 52.6324 61.374 53.6259 61.374 54.8044V87.4108C61.374 88.5911 60.9688 89.5865 60.1603 90.4005C59.35 91.2109 58.3565 91.6142 57.1779 91.6142C55.9976 91.6142 55.0022 91.2109 54.1882 90.4005C53.3778 89.5865 52.9745 88.5911 52.9745 87.4108V54.8044Z" fill="#FFD242"/>
<path d="M68.121 61.3242C69.2995 61.3242 70.2931 61.7312 71.1034 62.5453C71.9119 63.3556 72.3171 64.3491 72.3171 65.5276V87.4107C72.3171 88.5911 71.9119 89.5864 71.1034 90.4005C70.2931 91.2108 69.2995 91.6142 68.121 91.6142C66.9407 91.6142 65.9453 91.2108 65.1313 90.4005C64.3209 89.5864 63.9176 88.5911 63.9176 87.4107V65.5276C63.9176 64.3491 64.3209 63.3556 65.1313 62.5453C65.9453 61.7312 66.9407 61.3242 68.121 61.3242ZM68.121 50.6602C69.4476 50.6602 70.5595 51.0117 71.4586 51.711C72.3615 52.4122 72.8129 53.3687 72.8129 54.5824V54.6934C72.8129 55.9126 72.3615 56.8821 71.4586 57.6018C70.5595 58.3178 69.4476 58.6748 68.121 58.6748C66.7927 58.6748 65.6789 58.3178 64.776 57.6018C63.8732 56.8821 63.4218 55.9126 63.4218 54.6934V54.5824C63.4218 53.3687 63.8732 52.4122 64.776 51.711C65.6789 51.0117 66.7927 50.6602 68.121 50.6602Z" fill="#FFD242"/>
<path d="M88.5663 61.1021C90.816 61.1021 92.7494 61.3888 94.3682 61.9605C95.9908 62.534 97.4283 63.3555 98.6827 64.4248C98.9787 64.6432 99.271 64.9928 99.5633 65.4757C99.8593 65.9549 100.007 66.5617 100.007 67.2962C100.007 68.3619 99.6373 69.2555 98.8973 69.9752C98.1609 70.6967 97.2618 71.0556 96.1961 71.0556C95.6429 71.0556 95.1619 70.965 94.753 70.7818C94.3479 70.595 94.0167 70.4099 93.7614 70.2268C93.025 69.6348 92.2443 69.1741 91.4154 68.8429C90.5866 68.5136 89.619 68.3471 88.5145 68.3471C87.4821 68.3471 86.5238 68.5598 85.6357 68.9835C84.7513 69.409 83.9873 69.9881 83.3416 70.7226C82.6996 71.459 82.2038 72.3137 81.8541 73.2906C81.5026 74.2674 81.3286 75.309 81.3286 76.4136V76.5246C81.3286 77.6698 81.5026 78.741 81.8541 79.7363C82.2038 80.728 82.7088 81.5939 83.3712 82.3339C84.0372 83.0702 84.8291 83.6493 85.7467 84.073C86.6681 84.493 87.7023 84.702 88.8475 84.702C89.952 84.702 90.9529 84.5281 91.8521 84.1766C92.7549 83.8269 93.593 83.3219 94.3682 82.6595C94.5902 82.4782 94.8936 82.3024 95.2785 82.1341C95.667 81.9676 96.1184 81.8825 96.6327 81.8825C97.6281 81.8825 98.4681 82.234 99.1489 82.9333C99.8297 83.6345 100.17 84.4837 100.17 85.4791C100.17 86.0323 100.059 86.5299 99.8371 86.974C99.6188 87.4143 99.3265 87.7991 98.9565 88.1284C97.7021 89.2737 96.2479 90.1969 94.5902 90.8962C92.9325 91.5955 90.8863 91.9471 88.4553 91.9471C86.2444 91.9471 84.1889 91.5419 82.2907 90.7334C80.3962 89.9193 78.7644 88.8222 77.399 87.4402C76.0373 86.06 74.968 84.4393 74.1946 82.5781C73.425 80.7188 73.0402 78.7373 73.0402 76.6356V76.5246C73.0402 74.4228 73.425 72.4358 74.1946 70.5598C74.968 68.6801 76.0373 67.0409 77.399 65.6385C78.7644 64.238 80.4054 63.1335 82.3203 62.3231C84.2389 61.5091 86.3202 61.1021 88.5663 61.1021Z" fill="#FFD242"/>
<path d="M100.286 54.8044C100.286 53.6259 100.69 52.6324 101.5 51.8221C102.309 51.0136 103.302 50.6084 104.482 50.6084C105.661 50.6084 106.654 51.0136 107.465 51.8221C108.279 52.6324 108.686 53.6259 108.686 54.8044V73.1501L119.187 63.2039C119.812 62.6175 120.403 62.1586 120.956 61.8275C121.507 61.4926 122.151 61.3242 122.887 61.3242C124.031 61.3242 124.934 61.7128 125.596 62.4861C126.262 63.2613 126.595 64.1271 126.595 65.0836C126.595 65.8237 126.419 66.4805 126.069 67.0522C125.718 67.6201 125.248 68.1807 124.656 68.7321L118.025 74.423L125.929 85.0944C126.628 86.0121 126.98 86.9149 126.98 87.803C126.98 88.9426 126.591 89.864 125.818 90.5633C125.043 91.2645 124.123 91.6142 123.058 91.6142C122.208 91.6142 121.515 91.4662 120.978 91.1702C120.445 90.8742 119.922 90.3765 119.409 89.6753L112.06 79.5663L108.686 82.6079V87.4108C108.686 88.5911 108.279 89.5865 107.465 90.4005C106.654 91.2109 105.661 91.6142 104.482 91.6142C103.302 91.6142 102.309 91.2109 101.5 90.4005C100.69 89.5865 100.286 88.5911 100.286 87.4108V54.8044Z" fill="#FFD242"/>
<path d="M53.4389 94.0669C54.0606 94.0669 54.5731 94.2297 54.9782 94.5553C55.3816 94.8772 55.6776 95.2732 55.8663 95.7468L61.313 109.845L66.8189 95.5914C66.9854 95.1973 67.2667 94.8439 67.6626 94.5331C68.0567 94.2223 68.5432 94.0669 69.1205 94.0669C69.7865 94.0669 70.3452 94.2871 70.8004 94.7255C71.2592 95.1603 71.4886 95.7079 71.4886 96.3684C71.4886 96.5571 71.4608 96.744 71.4072 96.9309C71.3572 97.1196 71.2999 97.2842 71.237 97.4267L64.1104 114.485C63.5923 115.748 62.6895 116.379 61.4018 116.379H61.091C59.807 116.379 58.9079 115.748 58.3898 114.485L51.3224 97.5821C51.2373 97.4008 51.1689 97.2158 51.1152 97.0271C51.0653 96.8402 51.0412 96.6422 51.0412 96.435C51.0412 95.769 51.2725 95.2103 51.7368 94.7551C52.2049 94.2963 52.7729 94.0669 53.4389 94.0669Z" fill="#3E5622"/>
<path d="M71.3006 107.729C71.3006 106.55 71.5023 105.433 71.9074 104.376C72.3108 103.316 72.8769 102.391 73.6021 101.601C74.3274 100.813 75.1969 100.191 76.2145 99.7361C77.2302 99.2773 78.3403 99.0479 79.5447 99.0479C80.9545 99.0479 82.1644 99.3032 83.1709 99.8101C84.1774 100.319 85.0062 100.968 85.6574 101.756C86.3124 102.546 86.7971 103.412 87.1079 104.354C87.4187 105.298 87.5742 106.204 87.5742 107.077C87.5742 107.764 87.3595 108.313 86.9303 108.728C86.5048 109.142 85.9831 109.349 85.3614 109.349H75.9999C76.2256 110.43 76.6974 111.244 77.4134 111.791C78.1275 112.339 79.0137 112.613 80.0701 112.613C80.7362 112.613 81.343 112.517 81.8906 112.324C82.442 112.128 82.9581 111.851 83.4373 111.495C83.6001 111.373 83.7703 111.281 83.9479 111.222C84.1256 111.159 84.3365 111.125 84.5844 111.125C85.1209 111.125 85.5612 111.303 85.9017 111.658C86.2458 112.01 86.4197 112.454 86.4197 112.99C86.4197 113.301 86.3568 113.571 86.2347 113.797C86.1107 114.024 85.9646 114.222 85.7981 114.389C85.0728 115.011 84.2366 115.505 83.2893 115.869C82.3457 116.228 81.2542 116.409 80.0109 116.409C78.7676 116.409 77.6095 116.202 76.5401 115.788C75.4744 115.373 74.5512 114.785 73.7723 114.019C72.9916 113.249 72.3848 112.337 71.9518 111.281C71.5171 110.221 71.3006 109.059 71.3006 107.795V107.729ZM75.9333 106.389H83.0599C82.9156 105.335 82.5437 104.48 81.9424 103.829C81.3393 103.174 80.54 102.844 79.5447 102.844C78.5475 102.844 77.7427 103.168 77.1321 103.814C76.5198 104.456 76.1201 105.314 75.9333 106.389Z" fill="#3E5622"/>
<path d="M88.6287 113.863V101.534C88.6287 100.874 88.8544 100.317 89.3095 99.8616C89.7683 99.4028 90.3308 99.1733 90.9968 99.1733C91.6573 99.1733 92.2142 99.4028 92.6693 99.8616C93.1281 100.317 93.3575 100.874 93.3575 101.534V102.282C93.7128 101.473 94.1586 100.753 94.697 100.121C95.2336 99.4897 95.8552 99.1733 96.5619 99.1733C97.2872 99.1733 97.8515 99.3917 98.2566 99.8246C98.66 100.259 98.8635 100.809 98.8635 101.475C98.8635 102.097 98.6859 102.59 98.3306 102.955C97.9791 103.316 97.5684 103.56 97.0948 103.688C95.8903 103.998 94.9653 104.616 94.3196 105.538C93.6776 106.461 93.3575 107.763 93.3575 109.445V113.863C93.3575 114.526 93.1281 115.084 92.6693 115.543C92.2142 115.998 91.6573 116.224 90.9968 116.224C90.3308 116.224 89.7683 115.998 89.3095 115.543C88.8544 115.084 88.6287 114.526 88.6287 113.863Z" fill="#3E5622"/>
<path d="M98.3351 107.669C98.3351 106.278 98.546 105.049 98.9715 103.984C99.3952 102.914 99.9558 102.012 100.651 101.275C101.347 100.535 102.15 99.9802 103.064 99.6101C103.976 99.2364 104.931 99.0477 105.928 99.0477C107.195 99.0477 108.239 99.2975 109.058 99.7952C109.876 100.295 110.564 100.874 111.123 101.534V95.5029C111.123 94.8369 111.349 94.2781 111.804 93.823C112.263 93.3642 112.825 93.1348 113.491 93.1348C114.152 93.1348 114.709 93.3642 115.164 93.823C115.622 94.2781 115.852 94.8369 115.852 95.5029V113.863C115.852 114.526 115.622 115.084 115.164 115.543C114.709 115.998 114.152 116.224 113.491 116.224C112.825 116.224 112.263 115.998 111.804 115.543C111.349 115.084 111.123 114.526 111.123 113.863V113.641C110.546 114.431 109.845 115.081 109.021 115.588C108.202 116.095 107.171 116.35 105.928 116.35C104.951 116.35 104.006 116.165 103.094 115.795C102.18 115.421 101.371 114.866 100.666 114.13C99.9595 113.39 99.3952 112.487 98.9715 111.421C98.546 110.352 98.3351 109.12 98.3351 107.728V107.669ZM103.064 107.669V107.728C103.064 108.415 103.171 109.044 103.39 109.616C103.606 110.184 103.902 110.67 104.278 111.073C104.651 111.479 105.084 111.791 105.573 112.013C106.061 112.232 106.583 112.339 107.142 112.339C107.704 112.339 108.226 112.232 108.71 112.013C109.199 111.791 109.623 111.479 109.983 111.073C110.348 110.67 110.638 110.184 110.857 109.616C111.079 109.044 111.19 108.415 111.19 107.728V107.669C111.19 106.985 111.079 106.357 110.857 105.79C110.638 105.218 110.348 104.729 109.983 104.324C109.623 103.921 109.199 103.61 108.71 103.392C108.226 103.175 107.704 103.066 107.142 103.066C106.583 103.066 106.061 103.175 105.573 103.392C105.084 103.61 104.651 103.921 104.278 104.324C103.902 104.729 103.606 105.212 103.39 105.775C103.171 106.333 103.064 106.964 103.064 107.669Z" fill="#3E5622"/>
<path d="M116.726 107.729C116.726 106.55 116.928 105.433 117.333 104.376C117.737 103.316 118.303 102.391 119.028 101.601C119.753 100.813 120.623 100.191 121.64 99.7361C122.656 99.2773 123.766 99.0479 124.971 99.0479C126.38 99.0479 127.59 99.3032 128.597 99.8101C129.603 100.319 130.432 100.968 131.083 101.756C131.738 102.546 132.223 103.412 132.534 104.354C132.845 105.298 133 106.204 133 107.077C133 107.764 132.785 108.313 132.356 108.728C131.931 109.142 131.409 109.349 130.787 109.349H121.426C121.651 110.43 122.123 111.244 122.839 111.791C123.553 112.339 124.44 112.613 125.496 112.613C126.162 112.613 126.769 112.517 127.316 112.324C127.868 112.128 128.384 111.851 128.863 111.495C129.026 111.373 129.196 111.281 129.374 111.222C129.551 111.159 129.762 111.125 130.01 111.125C130.547 111.125 130.987 111.303 131.327 111.658C131.672 112.01 131.846 112.454 131.846 112.99C131.846 113.301 131.783 113.571 131.661 113.797C131.537 114.024 131.39 114.222 131.224 114.389C130.499 115.011 129.662 115.505 128.715 115.869C127.772 116.228 126.68 116.409 125.437 116.409C124.193 116.409 123.035 116.202 121.966 115.788C120.9 115.373 119.977 114.785 119.198 114.019C118.417 113.249 117.811 112.337 117.378 111.281C116.943 110.221 116.726 109.059 116.726 107.795V107.729ZM121.359 106.389H128.486C128.341 105.335 127.97 104.48 127.368 103.829C126.765 103.174 125.966 102.844 124.971 102.844C123.973 102.844 123.169 103.168 122.558 103.814C121.946 104.456 121.546 105.314 121.359 106.389Z" fill="#3E5622"/>
</svg>
