<svg width="133" height="117" viewBox="0 0 133 117" fill="none" xmlns="http://www.w3.org/2000/svg">
<mask id="mask0_40_5350" style="mask-type:luminance" maskUnits="userSpaceOnUse" x="0" y="0" width="53" height="38">
<path d="M0 0.473633H52.0991V37.8902H0V0.473633Z" fill="white"/>
</mask>
<g mask="url(#mask0_40_5350)">
<mask id="mask1_40_5350" style="mask-type:luminance" maskUnits="userSpaceOnUse" x="-3" y="-17" width="91" height="78">
<path d="M-2.26074 1.97784L73.6899 -16.4233L87.8248 41.9217L11.8741 60.321L-2.26074 1.97784Z" fill="white"/>
</mask>
<g mask="url(#mask1_40_5350)">
<mask id="mask2_40_5350" style="mask-type:luminance" maskUnits="userSpaceOnUse" x="-3" y="-17" width="91" height="78">
<path d="M73.738 -16.4346L-2.21265 1.96476L11.9222 60.3098L87.8729 41.9086L73.738 -16.4346Z" fill="white"/>
</mask>
<g mask="url(#mask2_40_5350)">
<path d="M16.8075 26.8908L16.7279 26.4009C12.344 26.5792 9.64465 25.3602 8.00915 24.0191C3.15847 17.6488 0.0745016 10.323 0.547183 3.74083C0.591639 3.72737 0.645129 3.71133 0.707387 3.69293C0.919174 3.63032 1.23241 3.54033 1.63663 3.43129C2.44512 3.21319 3.61739 2.91897 5.06984 2.61525C7.97536 2.0077 11.9989 1.36288 16.4726 1.2127C25.4306 0.911997 36.1352 2.5957 43.3171 10.4588L43.5017 10.2902L43.3171 10.4588C47.1589 14.6645 49.2787 20.8953 50.4356 26.1036C51.013 28.7031 51.3486 31.0382 51.5397 32.7233C51.6353 33.5657 51.6947 34.2452 51.7302 34.7137C51.7334 34.7547 51.7363 34.794 51.739 34.8317C50.7446 33.986 49.3329 33.0377 47.7081 32.0479C45.809 30.8911 43.6026 29.6683 41.398 28.4754C40.4734 27.9751 39.5501 27.4805 38.6502 26.9985C35.2456 25.1747 32.1749 23.5299 30.6274 22.4286L30.3021 22.8053C31.1453 23.6844 32.5235 24.771 34.1484 25.969C35.1634 26.7173 36.283 27.5151 37.4377 28.3378C38.1337 28.8337 38.8425 29.3387 39.5487 29.8475C41.4302 31.2027 43.2991 32.588 44.8879 33.9152C46.0024 34.8462 46.9708 35.742 47.7076 36.5731C46.4608 35.9741 45.0993 35.7158 43.6455 35.6524C41.7303 35.569 39.635 35.8237 37.413 36.0943L37.4039 36.0954C33.1475 36.6139 28.3833 37.1941 23.2719 35.6866C24.6023 35.1895 25.7464 34.5472 26.5936 33.9992C27.0929 33.6763 27.4905 33.3852 27.7639 33.1743C27.9006 33.0688 28.0064 32.9833 28.0784 32.9238C28.1144 32.8941 28.1419 32.8708 28.1607 32.8548L28.1823 32.8363L28.188 32.8314L28.1896 32.83L28.1901 32.8295L28.1902 32.8294C28.1903 32.8293 28.1904 32.8293 28.0255 32.6413L28.1904 32.8293L27.9102 32.4195C24.0711 34.4146 21.1382 34.4837 19.0936 33.9858C16.4013 32.5699 13.6271 30.4578 10.7943 27.357C12.2998 27.5152 13.7049 27.425 14.7748 27.2843C15.3898 27.2034 15.8959 27.1057 16.249 27.0279C16.4256 26.989 16.5641 26.955 16.659 26.9307C16.7065 26.9185 16.743 26.9087 16.768 26.9019L16.7967 26.8939L16.8043 26.8917L16.8065 26.8911L16.8071 26.8909L16.8073 26.8909C16.8074 26.8909 16.8075 26.8908 16.738 26.6507L16.8075 26.8908Z" fill="#7BD389" stroke="#3E5622" stroke-width="0.5"/>
</g>
</g>
</g>
<mask id="mask3_40_5350" style="mask-type:luminance" maskUnits="userSpaceOnUse" x="51" y="0" width="27" height="41">
<path d="M51.8755 0.25H77.425V40.0084H51.8755V0.25Z" fill="white" stroke="white" stroke-width="0.5"/>
</mask>
<g mask="url(#mask3_40_5350)">
<mask id="mask4_40_5350" style="mask-type:luminance" maskUnits="userSpaceOnUse" x="-3" y="-17" width="91" height="78">
<path d="M12.0582 60.0192L-1.95891 2.16195L73.5058 -16.1215L87.5229 41.7376L12.0582 60.0192Z" fill="white" stroke="white" stroke-width="0.5"/>
</mask>
<g mask="url(#mask4_40_5350)">
<mask id="mask5_40_5350" style="mask-type:luminance" maskUnits="userSpaceOnUse" x="-3" y="-17" width="91" height="78">
<path d="M-1.91081 2.14887L73.5539 -16.1327L87.571 41.7245L12.1063 60.0079L-1.91081 2.14887Z" fill="white" stroke="white" stroke-width="0.5"/>
</mask>
<g mask="url(#mask5_40_5350)">
<path d="M58.4378 13.8387L58.2045 13.9287L58.6857 13.8068C58.279 10.6454 58.9896 8.61976 59.8505 7.35843C64.1586 3.43836 69.2623 0.743774 74.0478 0.653469C74.0563 0.674774 74.0656 0.698211 74.0756 0.723743C74.1346 0.873538 74.2199 1.09545 74.3249 1.38238C74.5349 1.9563 74.8236 2.79015 75.137 3.82732C75.764 5.90228 76.4892 8.78786 76.8833 12.0319C77.6728 18.5307 77.1271 26.41 71.8779 32.1207L71.8779 32.1207C69.0713 35.1748 64.682 37.1124 60.9653 38.2866C59.1115 38.8722 57.4345 39.2651 56.2211 39.5115C55.6561 39.6262 55.192 39.7091 54.8577 39.7649C55.3881 38.9928 55.9585 37.9515 56.5421 36.7726C57.2643 35.3137 58.0148 33.627 58.7433 31.9447C59.0472 31.2427 59.347 30.5426 59.6391 29.8603C60.7528 27.2586 61.7555 24.9164 62.4589 23.7211L62.0553 23.4297C61.4645 24.1046 60.7582 25.1824 59.9893 26.442C59.5083 27.23 58.9976 28.0979 58.4713 28.9926C58.1548 29.5305 57.8326 30.078 57.5079 30.6236C56.6408 32.0803 55.7518 33.5283 54.8878 34.7683C54.3599 35.5259 53.8458 36.1991 53.3559 36.7471C53.6303 35.88 53.7072 34.9654 53.6652 34.0096C53.6035 32.6025 53.2829 31.0867 52.9442 29.4867L52.9438 29.4846C52.3053 26.4679 51.5947 23.1108 52.3005 19.3838C52.7317 20.2482 53.2351 20.9808 53.661 21.528C53.9295 21.8729 54.1682 22.1455 54.3405 22.3324C54.4266 22.4259 54.4962 22.4981 54.5446 22.5472C54.5688 22.5718 54.5878 22.5907 54.6009 22.6035L54.6161 22.6184L54.6202 22.6224L54.6214 22.6236L54.6218 22.624L54.622 22.6241C54.622 22.6241 54.622 22.6242 54.7949 22.4436L54.622 22.6242L55.0058 22.3094C53.3181 19.6566 53.0831 17.5446 53.3112 16.0402C54.1514 14.0392 55.4722 11.9357 57.4762 9.73014C57.4755 10.7752 57.6241 11.7314 57.7862 12.464C57.8846 12.9088 57.9885 13.273 58.068 13.5267C58.1077 13.6536 58.1415 13.7531 58.1654 13.8213C58.1774 13.8554 58.187 13.8817 58.1937 13.8997L58.2014 13.9206L58.2036 13.9263L58.2042 13.9279L58.2044 13.9284L58.2045 13.9286C58.2045 13.9286 58.2045 13.9287 58.4378 13.8387Z" fill="#7BD389" stroke="#3E5622" stroke-width="0.5"/>
</g>
</g>
</g>
<mask id="mask6_40_5350" style="mask-type:luminance" maskUnits="userSpaceOnUse" x="10" y="35" width="71" height="21">
<path d="M10.8933 35.522H80.043V55.4143H10.8933V35.522Z" fill="white"/>
</mask>
<g mask="url(#mask6_40_5350)">
<mask id="mask7_40_5350" style="mask-type:luminance" maskUnits="userSpaceOnUse" x="-3" y="-17" width="91" height="78">
<path d="M-2.26099 1.97784L73.6897 -16.4233L87.8245 41.9217L11.8738 60.321L-2.26099 1.97784Z" fill="white"/>
</mask>
<g mask="url(#mask7_40_5350)">
<mask id="mask8_40_5350" style="mask-type:luminance" maskUnits="userSpaceOnUse" x="-3" y="-17" width="91" height="78">
<path d="M73.7378 -16.4346L-2.21289 1.96476L11.9219 60.3098L87.8726 41.9086L73.7378 -16.4346Z" fill="white"/>
</mask>
<g mask="url(#mask8_40_5350)">
<path d="M79.8635 35.6865C79.8635 35.6865 66.2097 45.7271 41.2018 40.5005C16.1957 35.2739 10.9858 55.2403 10.9858 55.2403C10.9858 55.2403 17.1652 40.9112 38.9502 44.7336C60.7353 48.5559 72.3151 42.1194 79.8635 35.6865Z" fill="#3E5622"/>
</g>
</g>
</g>
<path d="M36.8938 51.9331C39.804 51.9331 42.2702 52.2735 44.2942 52.9544C46.322 53.6352 48.1647 54.6028 49.8224 55.8553C50.2664 56.1865 50.6531 56.6472 50.9842 57.2392C51.3135 57.8276 51.4801 58.4899 51.4801 59.2299C51.4801 60.4103 51.0749 61.3964 50.2664 62.1901C49.456 62.9801 48.4625 63.3742 47.284 63.3742C46.692 63.3742 46.1924 63.2835 45.7891 63.1004C45.384 62.9135 45.0343 62.7285 44.7383 62.5453C43.5579 61.6573 42.3331 60.9746 41.0602 60.4954C39.7911 60.0181 38.3831 59.7776 36.8346 59.7776C35.2158 59.7776 33.7135 60.0921 32.3277 60.7174C30.9457 61.3446 29.7561 62.2105 28.7607 63.315C27.7691 64.4213 26.9957 65.7016 26.4444 67.1558C25.8912 68.6118 25.6155 70.1678 25.6155 71.8255V71.9365C25.6155 73.5942 25.8912 75.1612 26.4444 76.6358C26.9957 78.1121 27.7617 79.4017 28.7385 80.5062C29.7154 81.6126 30.8939 82.4877 32.2759 83.1333C33.6561 83.7753 35.1769 84.0954 36.8346 84.0954C38.6403 84.0954 40.1962 83.8401 41.5043 83.3258C42.8104 82.8077 44.0537 82.051 45.2341 81.0538C45.9741 80.4285 46.8215 80.114 47.7798 80.114C48.8455 80.114 49.7743 80.5025 50.5698 81.2758C51.3635 82.051 51.7613 82.9742 51.7613 84.0436C51.7613 84.7059 51.6207 85.2758 51.3395 85.7531C51.0619 86.2323 50.7215 86.6744 50.3182 87.0778C48.6253 88.667 46.692 89.8751 44.5163 90.704C42.3442 91.5328 39.693 91.9473 36.5608 91.9473C33.7227 91.9473 31.0882 91.4311 28.6571 90.4006C26.2242 89.3645 24.1225 87.9547 22.3519 86.1675C20.5851 84.3822 19.2031 82.273 18.2077 79.8401C17.216 77.4091 16.7202 74.8116 16.7202 72.0475V71.9365C16.7202 69.1743 17.216 66.586 18.2077 64.1734C19.2031 61.7609 20.5851 59.6425 22.3519 57.8165C24.1225 55.9922 26.2409 54.5566 28.7089 53.5094C31.1807 52.4585 33.9077 51.9331 36.8938 51.9331Z" fill="#FFD242"/>
<path d="M52.9744 54.8044C52.9744 53.6259 53.3777 52.6324 54.188 51.8221C55.0021 51.0136 55.9974 50.6084 57.1778 50.6084C58.3563 50.6084 59.3498 51.0136 60.1602 51.8221C60.9687 52.6324 61.3739 53.6259 61.3739 54.8044V87.4108C61.3739 88.5911 60.9687 89.5865 60.1602 90.4005C59.3498 91.2109 58.3563 91.6142 57.1778 91.6142C55.9974 91.6142 55.0021 91.2109 54.188 90.4005C53.3777 89.5865 52.9744 88.5911 52.9744 87.4108V54.8044Z" fill="#FFD242"/>
<path d="M68.1209 61.3242C69.2994 61.3242 70.2929 61.7312 71.1033 62.5453C71.9118 63.3556 72.317 64.3491 72.317 65.5276V87.4107C72.317 88.5911 71.9118 89.5864 71.1033 90.4005C70.2929 91.2108 69.2994 91.6142 68.1209 91.6142C66.9405 91.6142 65.9452 91.2108 65.1311 90.4005C64.3208 89.5864 63.9175 88.5911 63.9175 87.4107V65.5276C63.9175 64.3491 64.3208 63.3556 65.1311 62.5453C65.9452 61.7312 66.9405 61.3242 68.1209 61.3242ZM68.1209 50.6602C69.4474 50.6602 70.5594 51.0117 71.4585 51.711C72.3614 52.4122 72.8128 53.3687 72.8128 54.5824V54.6934C72.8128 55.9126 72.3614 56.8821 71.4585 57.6018C70.5594 58.3178 69.4474 58.6748 68.1209 58.6748C66.7925 58.6748 65.6788 58.3178 64.7759 57.6018C63.8731 56.8821 63.4216 55.9126 63.4216 54.6934V54.5824C63.4216 53.3687 63.8731 52.4122 64.7759 51.711C65.6788 51.0117 66.7925 50.6602 68.1209 50.6602Z" fill="#FFD242"/>
<path d="M88.5662 61.1021C90.8159 61.1021 92.7492 61.3888 94.3681 61.9605C95.9906 62.534 97.4282 63.3555 98.6825 64.4248C98.9786 64.6432 99.2709 64.9928 99.5632 65.4757C99.8592 65.9549 100.007 66.5617 100.007 67.2962C100.007 68.3619 99.6372 69.2555 98.8972 69.9752C98.1608 70.6967 97.2617 71.0556 96.196 71.0556C95.6428 71.0556 95.1618 70.965 94.7529 70.7818C94.3477 70.595 94.0166 70.4099 93.7613 70.2268C93.0249 69.6348 92.2442 69.1741 91.4153 68.8429C90.5865 68.5136 89.6189 68.3471 88.5143 68.3471C87.482 68.3471 86.5236 68.5598 85.6356 68.9835C84.7512 69.409 83.9871 69.9881 83.3414 70.7226C82.6995 71.459 82.2036 72.3137 81.854 73.2906C81.5024 74.2674 81.3285 75.309 81.3285 76.4136V76.5246C81.3285 77.6698 81.5024 78.741 81.854 79.7363C82.2036 80.728 82.7087 81.5939 83.371 82.3339C84.0371 83.0702 84.8289 83.6493 85.7466 84.073C86.6679 84.493 87.7022 84.702 88.8474 84.702C89.9519 84.702 90.9528 84.5281 91.8519 84.1766C92.7548 83.8269 93.5929 83.3219 94.3681 82.6595C94.5901 82.4782 94.8935 82.3024 95.2783 82.1341C95.6669 81.9676 96.1183 81.8825 96.6326 81.8825C97.628 81.8825 98.4679 82.234 99.1488 82.9333C99.8296 83.6345 100.17 84.4837 100.17 85.4791C100.17 86.0323 100.059 86.5299 99.837 86.974C99.6187 87.4143 99.3264 87.7991 98.9564 88.1284C97.702 89.2737 96.2478 90.1969 94.5901 90.8962C92.9324 91.5955 90.8862 91.9471 88.4551 91.9471C86.2443 91.9471 84.1888 91.5419 82.2906 90.7334C80.3961 89.9193 78.7643 88.8222 77.3989 87.4402C76.0372 86.06 74.9679 84.4393 74.1945 82.5781C73.4249 80.7188 73.04 78.7373 73.04 76.6356V76.5246C73.04 74.4228 73.4249 72.4358 74.1945 70.5598C74.9679 68.6801 76.0372 67.0409 77.3989 65.6385C78.7643 64.238 80.4053 63.1335 82.3202 62.3231C84.2387 61.5091 86.3201 61.1021 88.5662 61.1021Z" fill="#FFD242"/>
<path d="M100.286 54.8044C100.286 53.6259 100.689 52.6324 101.5 51.8221C102.308 51.0136 103.302 50.6084 104.482 50.6084C105.661 50.6084 106.654 51.0136 107.465 51.8221C108.279 52.6324 108.686 53.6259 108.686 54.8044V73.1501L119.187 63.2039C119.812 62.6175 120.402 62.1586 120.956 61.8275C121.507 61.4926 122.151 61.3242 122.887 61.3242C124.03 61.3242 124.933 61.7128 125.596 62.4861C126.262 63.2613 126.595 64.1271 126.595 65.0836C126.595 65.8237 126.419 66.4805 126.069 67.0522C125.718 67.6201 125.248 68.1807 124.656 68.7321L118.025 74.423L125.929 85.0944C126.628 86.0121 126.98 86.9149 126.98 87.803C126.98 88.9426 126.591 89.864 125.818 90.5633C125.042 91.2645 124.123 91.6142 123.057 91.6142C122.208 91.6142 121.514 91.4662 120.978 91.1702C120.445 90.8742 119.921 90.3765 119.409 89.6753L112.06 79.5663L108.686 82.6079V87.4108C108.686 88.5911 108.279 89.5865 107.465 90.4005C106.654 91.2109 105.661 91.6142 104.482 91.6142C103.302 91.6142 102.308 91.2109 101.5 90.4005C100.689 89.5865 100.286 88.5911 100.286 87.4108V54.8044Z" fill="#FFD242"/>
<path d="M53.439 94.0669C54.0606 94.0669 54.5731 94.2297 54.9783 94.5553C55.3816 94.8772 55.6776 95.2732 55.8663 95.7468L61.3131 109.845L66.819 95.5914C66.9855 95.1973 67.2667 94.8439 67.6626 94.5331C68.0567 94.2223 68.5433 94.0669 69.1205 94.0669C69.7866 94.0669 70.3453 94.2871 70.8004 94.7255C71.2592 95.1603 71.4887 95.7079 71.4887 96.3684C71.4887 96.5571 71.4609 96.744 71.4073 96.9309C71.3573 97.1196 71.3 97.2842 71.237 97.4267L64.1104 114.485C63.5924 115.748 62.6895 116.379 61.4019 116.379H61.0911C59.8071 116.379 58.9079 115.748 58.3899 114.485L51.3225 97.5821C51.2374 97.4008 51.1689 97.2158 51.1153 97.0271C51.0653 96.8402 51.0413 96.6422 51.0413 96.435C51.0413 95.769 51.2725 95.2103 51.7369 94.7551C52.205 94.2963 52.773 94.0669 53.439 94.0669Z" fill="#3E5622"/>
<path d="M71.3005 107.729C71.3005 106.55 71.5022 105.433 71.9074 104.376C72.3107 103.316 72.8768 102.391 73.6021 101.601C74.3273 100.813 75.1969 100.191 76.2144 99.7361C77.2301 99.2773 78.3402 99.0479 79.5446 99.0479C80.9544 99.0479 82.1644 99.3032 83.1708 99.8101C84.1773 100.319 85.0061 100.968 85.6574 101.756C86.3123 102.546 86.797 103.412 87.1079 104.354C87.4187 105.298 87.5741 106.204 87.5741 107.077C87.5741 107.764 87.3595 108.313 86.9303 108.728C86.5047 109.142 85.983 109.349 85.3614 109.349H75.9998C76.2255 110.43 76.6973 111.244 77.4133 111.791C78.1274 112.339 79.0136 112.613 80.0701 112.613C80.7361 112.613 81.3429 112.517 81.8906 112.324C82.4419 112.128 82.9581 111.851 83.4373 111.495C83.6001 111.373 83.7703 111.281 83.9479 111.222C84.1255 111.159 84.3364 111.125 84.5843 111.125C85.1208 111.125 85.5612 111.303 85.9016 111.658C86.2457 112.01 86.4196 112.454 86.4196 112.99C86.4196 113.301 86.3567 113.571 86.2346 113.797C86.1107 114.024 85.9645 114.222 85.798 114.389C85.0727 115.011 84.2365 115.505 83.2892 115.869C82.3457 116.228 81.2541 116.409 80.0108 116.409C78.7676 116.409 77.6094 116.202 76.54 115.788C75.4744 115.373 74.5512 114.785 73.7723 114.019C72.9915 113.249 72.3847 112.337 71.9518 111.281C71.517 110.221 71.3005 109.059 71.3005 107.795V107.729ZM75.9332 106.389H83.0598C82.9155 105.335 82.5436 104.48 81.9424 103.829C81.3392 103.174 80.54 102.844 79.5446 102.844C78.5474 102.844 77.7426 103.168 77.1321 103.814C76.5197 104.456 76.1201 105.314 75.9332 106.389Z" fill="#3E5622"/>
<path d="M88.6287 113.863V101.534C88.6287 100.874 88.8544 100.317 89.3095 99.8616C89.7683 99.4028 90.3308 99.1733 90.9968 99.1733C91.6573 99.1733 92.2142 99.4028 92.6693 99.8616C93.1281 100.317 93.3575 100.874 93.3575 101.534V102.282C93.7128 101.473 94.1586 100.753 94.697 100.121C95.2336 99.4897 95.8552 99.1733 96.5619 99.1733C97.2872 99.1733 97.8515 99.3917 98.2566 99.8246C98.66 100.259 98.8635 100.809 98.8635 101.475C98.8635 102.097 98.6859 102.59 98.3306 102.955C97.9791 103.316 97.5684 103.56 97.0948 103.688C95.8903 103.998 94.9653 104.616 94.3196 105.538C93.6776 106.461 93.3575 107.763 93.3575 109.445V113.863C93.3575 114.526 93.1281 115.084 92.6693 115.543C92.2142 115.998 91.6573 116.224 90.9968 116.224C90.3308 116.224 89.7683 115.998 89.3095 115.543C88.8544 115.084 88.6287 114.526 88.6287 113.863Z" fill="#3E5622"/>
<path d="M98.3352 107.669C98.3352 106.278 98.5461 105.049 98.9716 103.984C99.3953 102.914 99.9559 102.012 100.652 101.275C101.347 100.535 102.15 99.9802 103.064 99.6101C103.976 99.2364 104.931 99.0477 105.928 99.0477C107.195 99.0477 108.239 99.2975 109.058 99.7952C109.876 100.295 110.564 100.874 111.123 101.534V95.5029C111.123 94.8369 111.349 94.2781 111.804 93.823C112.263 93.3642 112.825 93.1348 113.491 93.1348C114.152 93.1348 114.709 93.3642 115.164 93.823C115.623 94.2781 115.852 94.8369 115.852 95.5029V113.863C115.852 114.526 115.623 115.084 115.164 115.543C114.709 115.998 114.152 116.224 113.491 116.224C112.825 116.224 112.263 115.998 111.804 115.543C111.349 115.084 111.123 114.526 111.123 113.863V113.641C110.546 114.431 109.845 115.081 109.021 115.588C108.202 116.095 107.171 116.35 105.928 116.35C104.951 116.35 104.006 116.165 103.094 115.795C102.18 115.421 101.371 114.866 100.666 114.13C99.9596 113.39 99.3953 112.487 98.9716 111.421C98.5461 110.352 98.3352 109.12 98.3352 107.728V107.669ZM103.064 107.669V107.728C103.064 108.415 103.171 109.044 103.39 109.616C103.606 110.184 103.902 110.67 104.278 111.073C104.651 111.479 105.084 111.791 105.573 112.013C106.061 112.232 106.583 112.339 107.142 112.339C107.704 112.339 108.226 112.232 108.711 112.013C109.199 111.791 109.623 111.479 109.983 111.073C110.348 110.67 110.638 110.184 110.857 109.616C111.079 109.044 111.19 108.415 111.19 107.728V107.669C111.19 106.985 111.079 106.357 110.857 105.79C110.638 105.218 110.348 104.729 109.983 104.324C109.623 103.921 109.199 103.61 108.711 103.392C108.226 103.175 107.704 103.066 107.142 103.066C106.583 103.066 106.061 103.175 105.573 103.392C105.084 103.61 104.651 103.921 104.278 104.324C103.902 104.729 103.606 105.212 103.39 105.775C103.171 106.333 103.064 106.964 103.064 107.669Z" fill="#3E5622"/>
<path d="M116.727 107.729C116.727 106.55 116.928 105.433 117.333 104.376C117.737 103.316 118.303 102.391 119.028 101.601C119.753 100.813 120.623 100.191 121.64 99.7361C122.656 99.2773 123.766 99.0479 124.971 99.0479C126.38 99.0479 127.59 99.3032 128.597 99.8101C129.603 100.319 130.432 100.968 131.083 101.756C131.738 102.546 132.223 103.412 132.534 104.354C132.845 105.298 133 106.204 133 107.077C133 107.764 132.786 108.313 132.356 108.728C131.931 109.142 131.409 109.349 130.787 109.349H121.426C121.652 110.43 122.123 111.244 122.839 111.791C123.553 112.339 124.44 112.613 125.496 112.613C126.162 112.613 126.769 112.517 127.317 112.324C127.868 112.128 128.384 111.851 128.863 111.495C129.026 111.373 129.196 111.281 129.374 111.222C129.552 111.159 129.762 111.125 130.01 111.125C130.547 111.125 130.987 111.303 131.328 111.658C131.672 112.01 131.846 112.454 131.846 112.99C131.846 113.301 131.783 113.571 131.661 113.797C131.537 114.024 131.391 114.222 131.224 114.389C130.499 115.011 129.663 115.505 128.715 115.869C127.772 116.228 126.68 116.409 125.437 116.409C124.194 116.409 123.035 116.202 121.966 115.788C120.9 115.373 119.977 114.785 119.198 114.019C118.418 113.249 117.811 112.337 117.378 111.281C116.943 110.221 116.727 109.059 116.727 107.795V107.729ZM121.359 106.389H128.486C128.342 105.335 127.97 104.48 127.368 103.829C126.765 103.174 125.966 102.844 124.971 102.844C123.973 102.844 123.169 103.168 122.558 103.814C121.946 104.456 121.546 105.314 121.359 106.389Z" fill="#3E5622"/>
</svg>
